<svg xmlns="http://www.w3.org/2000/svg" viewBox="0 0 470 150">
  <path fill="#fff" fill-rule="evenodd" d="M448.49 0a6 6 0 0 1 2.9 1.27 3.71 3.71 0 0 1 1.6 3.1V92h12.31a5.13 5.13 0 0 1 3.35 1.1 4.21 4.21 0 0 1 1.34 3.4V0zM235 114a39 39 0 1 0-39-39 39 39 0 0 0 39 39zM70 92V58.2L50.4 92zm348 0V58.2L398.4 92zm47.33 35H453v17.6q0 4.4-4.8 4.4h-25.79q-4.4 0-4.4-4.4V127H353.8a5 5 0 0 1-4.2-1.7 6.1 6.1 0 0 1-1.3-3.8 8.38 8.38 0 0 1 1.7-5.1L415 2.57a4.58 4.58 0 0 1 2.25-2.15 10.47 10.47 0 0 1 2.86-.42H234.5A74.5 74.5 0 1 1 160 74.5 74.5 74.5 0 0 1 234.5 0h-134a6 6 0 0 1 2.9 1.27 3.71 3.71 0 0 1 1.6 3.1V92h12.31a5.13 5.13 0 0 1 3.35 1.1 4.26 4.26 0 0 1 1.35 3.5v25.8a4.54 4.54 0 0 1-1.35 3.15 4.39 4.39 0 0 1-3.35 1.45H105v17.6q0 4.4-4.8 4.4H74.41q-4.4 0-4.4-4.4V127H5.8a5 5 0 0 1-4.2-1.7 6.1 6.1 0 0 1-1.3-3.8 8.38 8.38 0 0 1 1.7-5.1L67 2.57A4.58 4.58 0 0 1 69.25.42 10.47 10.47 0 0 1 72.11 0H0v150h470v-27.52a4.55 4.55 0 0 1-1.34 3.07 4.39 4.39 0 0 1-3.35 1.45z" style="isolation:isolate"/>
</svg>