<svg xmlns="http://www.w3.org/2000/svg" width="80" height="80">
  <path fill="#00ffd2" fill-rule="evenodd" d="M62 27A27 27 0 1 1 35 0a27 27 0 0 1 27 27z" style="isolation:isolate"/>
  <path fill="#10131a" fill-rule="evenodd" d="M1.13 38h30.59a1.13 1.13 0 0 0 .88-.42l14.71-17.65a1.12 1.12 0 0 0 .24-.85l-1.13-9a1.13 1.13 0 0 0-2-.54L41 14a1.13200044 1.13200044 0 0 0 1.81 1.36l1.72-2.28.73 5.79L31.18 36H2.32a12.2 12.2 0 0 1 12.41-11h12.74l2 7a1.1332255 1.1332255 0 0 0 2.18-.62L29.82 25A4.63 4.63 0 0 0 34 20.35 4.4 4.4 0 0 0 29.46 16H10.38A3.4 3.4 0 0 0 7 19.37v2.11a3.38 3.38 0 0 0 1.36 2.69 15.7 15.7 0 0 0-4.22 3H2.27a1.13 1.13 0 1 0 0 2.26h.07A13.14 13.14 0 0 0 0 36.87 1.13 1.13 0 0 0 1.13 38zM9 19.12A1.13 1.13 0 0 1 10.1 18h19.58a2.35 2.35 0 0 1 2.27 2.36A2.65 2.65 0 0 1 29.68 23H10.1A1.13 1.13 0 0 1 9 21.88zM21.35 27a1.13 1.13 0 0 0 0 1.6 12.53 12.53 0 0 1 2.89 4.61 1.13 1.13 0 0 0 1.07.76 1.15 1.15 0 0 0 .38-.06 1.13 1.13 0 0 0 .69-1.44A14.77 14.77 0 0 0 23 27a1.13 1.13 0 0 0-1.65 0zm23-20.46a1.13 1.13 0 0 0 .91.45h6.82a5.5 5.5 0 0 0 2.83-1.15h.06v4.3L54.9 10a5.25 5.25 0 0 0-2.79-1h-2.28a1.16 1.16 0 0 0-.94.53 1.13 1.13 0 0 0-.1 1.06l5.69 13.57a1.14 1.14 0 0 0 1 .7A12.41 12.41 0 0 1 65 29.22l-21.85 6.54a12.45 12.45 0 0 1 8.19-10.18 1.13 1.13 0 1 0-.75-2.13 14.72 14.72 0 0 0-9.8 13.86 1.13 1.13 0 0 0 1.13 1.13 1.14 1.14 0 0 0 .33 0l24.92-7.47a1.13 1.13 0 0 0 .62-1.71 14.69 14.69 0 0 0-11.51-6.59L51.43 11H52c.2 0 .46.43.78.71a4.47 4.47 0 0 0 2.2.73 2 2 0 0 0 2-2.26V5.65a2 2 0 0 0-2-2.26 4.8 4.8 0 0 0-2.14 1.17c-.32.27-.53.43-.75.43h-6.23L42.8.63A1.1310283 1.1310283 0 0 0 41 2zM55.49 40.7a3.4 3.4 0 0 1-3.14-2.08 1.13192314 1.13192314 0 0 0-2.09.87A5.66683333 5.66683333 0 0 0 61 35.87a1.13148133 1.13148133 0 0 0-2.19.57 3.4 3.4 0 0 1-3.29 4.26zm-32.35.15a1.13 1.13 0 0 0-1.55.41 7.92 7.92 0 0 1-13.72 0 1.1485752 1.1485752 0 0 0-2 1.13 10.19 10.19 0 0 0 17.64 0 1.13 1.13 0 0 0-.37-1.54zm-6.71-.6a3.47 3.47 0 0 1-3.41 0 1.1535272 1.1535272 0 1 0-1.15 2 5.68 5.68 0 0 0 5.69 0 1.1485752 1.1485752 0 1 0-1.13-2zM58 47.18a10.19 10.19 0 0 0 7.43-12.34 1.13385405 1.13385405 0 0 0-2.2.55 7.93 7.93 0 0 1-15.11 4.71 1.13296072 1.13296072 0 0 0-2.12.8 10.2 10.2 0 0 0 12 6.28zM17 50H1a1 1 0 0 0 0 2h16a1 1 0 0 0 0-2zm18 0H23a1 1 0 0 0 0 2h12a1 1 0 0 0 0-2zm9 0h-3a1 1 0 0 0 0 2h3a1 1 0 0 0 0-2zm23 0H50a1 1 0 0 0 0 2h17a1 1 0 0 0 0-2z" style="isolation:isolate"/>
</svg>