<svg xmlns="http://www.w3.org/2000/svg" width="80" height="80">
  <path fill="#00ffd2" fill-rule="evenodd" d="M62 27A27 27 0 1 1 35 0a27 27 0 0 1 27 27z" style="isolation:isolate"/>
  <path fill="#10131a" fill-rule="evenodd" d="M13.6 47.48a13.6 13.6 0 0 0 13.6-13.56 13.43 13.43 0 0 0-4.2-9.81 1.1351762 1.1351762 0 1 0-1.57 1.64 11.19 11.19 0 0 1 3.51 8.18A11.33 11.33 0 1 1 13.6 22.62a1.13 1.13 0 1 0 0-2.26 13.56 13.56 0 1 0 0 27.12zM19.14 16h.57l-6.42 15.69a2.26 2.26 0 1 0 2.57 2.23 2.23 2.23 0 0 0-.48-1.37l6.4-15.48L29 27.45a1.13306002 1.13306002 0 0 0 1.87-1.28L23.69 16h2.38a3.54 3.54 0 0 0 3.4-3.55A3.48 3.48 0 0 0 26.07 9h-6.93A1.13 1.13 0 0 0 18 10.1v4.77A1.13 1.13 0 0 0 19.14 16zm.86-5h6.07c.63 0 1.2.85 1.2 1.47S26.69 14 26.07 14H20zm33.27 10.49a1.13 1.13 0 0 0 1.13 1.13 11.32 11.32 0 1 1-7.2 2.58 1.13 1.13 0 0 0-1.44-1.74 13.61 13.61 0 1 0 8.65-3.09 1.13 1.13 0 0 0-1.14 1.12zM35 28.43V25a1.15 1.15 0 0 0 1.26-1 1.05 1.05 0 0 0-1.13-1h-2.26a1.05 1.05 0 0 0-1.13 1A1.15 1.15 0 0 0 33 25v3.43a4.46 4.46 0 0 0 0 8.72V41a1.15 1.15 0 0 0-1.26 1 1 1 0 0 0 1.13 1h2.27a1 1 0 0 0 1.13-1A1.15 1.15 0 0 0 35 41v-3.8a4.46 4.46 0 0 0 0-8.72zm-1 6.62a2.26 2.26 0 1 1 2.27-2.26A2.27 2.27 0 0 1 34 35.05zm18.65-2.55a2.24 2.24 0 0 0-.52 1.42 2.27 2.27 0 1 0 2.64-2.22L49.66 18h8.09a2.35 2.35 0 0 0 2.29-2l1.13-5.62A1.13 1.13 0 0 0 60.07 9h-10.2a1.05 1.05 0 0 0-1.13 1 1 1 0 0 0 1.13 1h8.82l-.87 4.79a1.86 1.86 0 0 1-.07.2h-8.94L45.26 6.4 43 .73a1.1355285 1.1355285 0 0 0-2.11.84l2.06 5.14-4.26 7.44a1.1461239 1.1461239 0 0 0 2 1.12L44 9.45l2.73 7.25-8.64 9.69a1.13 1.13 0 0 0 1.69 1.5l7.84-8.8zM17 50H1a1 1 0 0 0 0 2h16a1 1 0 0 0 0-2zm18 0H23a1 1 0 0 0 0 2h12a1 1 0 0 0 0-2zm9 0h-3a1 1 0 0 0 0 2h3a1 1 0 0 0 0-2zm23 0H50a1 1 0 0 0 0 2h17a1 1 0 0 0 0-2z" style="isolation:isolate"/>
</svg>