<svg xmlns="http://www.w3.org/2000/svg" width="80" height="80">
  <path fill="#00ffd2" fill-rule="evenodd" d="M60 31A27 27 0 1 1 33 4a27 27 0 0 1 27 27z" style="isolation:isolate"/>
  <path fill="#10131a" fill-rule="evenodd" d="M54.4 45H48a1 1 0 1 0 0 2h6.4a7.9 7.9 0 0 1 7.51 7H44.17L10 19.28 26.14 3.11c.88 2.82 2.92 8.31 6.17 11.57C36 18.35 42.47 19.09 45 19.25V28h-2.72a1.85 1.85 0 0 0-1.84-1.2 2.14 2.14 0 1 0 1.84 3.2H45v7h-2.72c-.37-.64-.61-1.23-1.84-1.23A2.14 2.14 0 1 0 42.28 39H45v.66a1.07 1.07 0 0 0 .31.76l1.95 2.14a1.06 1.06 0 0 0 1.51 0 1.07 1.07 0 0 0 0-1.51L47 39.2v-21a1.07 1.07 0 0 0-1.07-1.07c-.08 0-8.2 0-12.11-4S27.72.89 27.7.81a1.06 1.06 0 0 0-1.79-.5L7.78 18.53 6.32 20a3.71 3.71 0 0 0 .08 5.1l33.38 33.51A5.13 5.13 0 0 0 43.25 60H60.8a3.17 3.17 0 0 0 3.2-3.21v-2.15A9.55 9.55 0 0 0 54.4 45zM62 57.19c0 .61-.46.79-1.07.79H43.25a3.1 3.1 0 0 1-2-.76L7.91 23.58a1.55 1.55 0 0 1-.08-2.07l.7-.71L43 55.68a1.06 1.06 0 0 0 .75.31H62zM41.59 23.34a1.07 1.07 0 0 0 .15-2.13A21.28 21.28 0 0 1 25.47 9.08a1.07 1.07 0 1 0-1.93.91 23.41 23.41 0 0 0 17.9 13.34zM3 38h8a1 1 0 0 0 0-2H3a1 1 0 0 0 0 2zm16 6a1 1 0 0 0-1-1H1a1 1 0 0 0 0 2h17a1 1 0 0 0 1-1zm5 6H5a1 1 0 0 0 0 2h19a1 1 0 0 0 0-2zm10-23v13a1 1 0 0 0 2 0V27a1 1 0 0 0-2 0z" style="isolation:isolate"/>
</svg>