<?xml version="1.0" encoding="utf-8"?>
<!-- Generator: Adobe Illustrator 19.2.0, SVG Export Plug-In . SVG Version: 6.00 Build 0)  -->
<svg version="1.1" id="logo_1_" xmlns="http://www.w3.org/2000/svg" xmlns:xlink="http://www.w3.org/1999/xlink" x="0px" y="0px"
	 width="197px" height="39px" viewBox="0 0 197 39" style="enable-background:new 0 0 197 39;" xml:space="preserve">
<style type="text/css">
	.st0{fill:#FFFFFF;}
</style>
<g>
	<path class="st0" d="M193,33c1.1,0,2,0.9,2,2s-0.9,2-2,2s-2-0.9-2-2S191.9,33,193,33 M193,31c-2.21,0-4,1.79-4,4s1.79,4,4,4
		c2.21,0,4-1.79,4-4S195.21,31,193,31L193,31z"/>
</g>
<g>
	<path class="st0" d="M174,15c6.07,0,11,4.93,11,11s-4.93,11-11,11c-6.07,0-11-4.93-11-11S167.93,15,174,15 M174,33
		c3.86,0,7-3.14,7-7s-3.14-7-7-7s-7,3.14-7,7S170.14,33,174,33 M174,13c-7.18,0-13,5.82-13,13s5.82,13,13,13s13-5.82,13-13
		S181.18,13,174,13L174,13z M174,31c-2.76,0-5-2.24-5-5s2.24-5,5-5s5,2.24,5,5S176.76,31,174,31L174,31z"/>
</g>
<path class="st0" d="M156,14.03V13h-22v2h19.4l-11.23,16H142v0.24l-0.37,0.52l0.37,0.21V33h14v-2h-11.4l11.23-16H156v-0.24
	l0.37-0.52L156,14.03z M134,39h22v-2h-22V39z M135.37,32.76L143.82,21H144v-0.25l0.37-0.51L144,20.03V19h-10v2h7.37l-7.73,10.76
	L135.37,32.76z"/>
<path class="st0" d="M108,39h2V13h-2V39z M114,13v2h15v-2H114z M114,39h2V21h13v-2h-15V39z"/>
<g>
	<path class="st0" d="M90,15c6.07,0,11,4.93,11,11s-4.93,11-11,11s-11-4.93-11-11S83.93,15,90,15 M90,33c3.86,0,7-3.14,7-7
		s-3.14-7-7-7s-7,3.14-7,7S86.14,33,90,33 M90,13c-7.18,0-13,5.82-13,13s5.82,13,13,13s13-5.82,13-13S97.18,13,90,13L90,13z M90,31
		c-2.76,0-5-2.24-5-5s2.24-5,5-5s5,2.24,5,5S92.76,31,90,31L90,31z"/>
</g>
<path class="st0" d="M53,0v39h2V2h23V0H53z M59,18h14v-2H61V8h17V6H59V18z M59,39h2V24h12v-2H59V39z"/>
<path class="st0" d="M13.05,11H13v0.09L8.95,18.1L3.12,8L1.38,9l10.39,18H0v2h20.2l-5.77,10h2.31l5.77-10H23v-0.84l3.57-6.18
	l6.32,10.94l1.73-1L23.69,13H36v-2H15.36l6.02-10.42l-1-0.58H19.4L13.05,11z M21.38,13l4.03,6.98L21.36,27h-7.27l-3.98-6.9l4.1-7.1
	H21.38z"/>
</svg>
